<?xml version="1.0" encoding="iso-8859-1"?>
<!-- Generator: Adobe Illustrator 19.0.0, SVG Export Plug-In . SVG Version: 6.00 Build 0)  -->
<svg xmlns="http://www.w3.org/2000/svg" xmlns:xlink="http://www.w3.org/1999/xlink" version="1.1" id="Layer_1" x="0px" y="0px" viewBox="0 0 487.901 487.901" style="enable-background:new 0 0 487.901 487.901;" xml:space="preserve" width="512px" height="512px">
<g>
	<g>
		<path d="M474.2,303.801c-38.9-32-80.9-53.9-92.6-59.7v-58.2c8.3-6.7,13.2-16.8,13.2-27.6v-65.5c0-35.8-29.1-65-65-65h-14.1    c-35.8,0-65,29.1-65,65v65.5c0,10.8,4.9,20.9,13.2,27.6v58.2c-11.7,5.8-53.7,27.7-92.6,59.7c-8.7,7.2-13.7,17.8-13.7,29.2v44.9    c0,3.3,2.7,6,6,6c3.3,0,6-2.7,6-6v-44.9c0-7.8,3.4-15,9.3-19.9c40.2-33,83.7-55,92-59c3.1-1.5,5-4.6,5-8v-63.1c0-2-1-3.9-2.7-5    c-6.6-4.4-10.5-11.7-10.5-19.6v-65.5c0-29.2,23.8-53,53-53h14.1c29.2,0,53,23.8,53,53v65.5c0,7.9-3.9,15.2-10.5,19.6    c-1.7,1.1-2.7,3-2.7,5v63.1c0,3.4,1.9,6.5,5,8c8.3,4.1,51.9,26,92,59c5.9,4.9,9.3,12.1,9.3,19.9v44.9c0,3.3,2.7,6,6,6s6-2.7,6-6    v-44.9C488,321.601,483,311.001,474.2,303.801z" fill="#2c3e50"/>
	</g>
</g>
<g>
	<g>
		<path d="M141.4,92.001h-11.5c-29.8,0-54,24.2-54,54v53.3c0,8.9,4,17.3,10.7,23v46.2c-10.3,5.2-43.9,22.9-75,48.4    c-7.4,6.1-11.6,15-11.6,24.6v36.5c0.2,3.2,2.9,5.9,6.2,5.9c3.3,0,6-2.7,6-6v-36.5c0-6,2.6-11.6,7.2-15.3    c32.6-26.8,68-44.6,74.7-47.9c2.9-1.4,4.7-4.3,4.7-7.5v-51.4c0-2-1-3.9-2.7-5c-5-3.4-8.1-9-8.1-15v-53.3c0-23.2,18.9-42,42-42    h11.5c23.2,0,42,18.9,42,42v53.3c0,6-3,11.7-8.1,15c-1.7,1.1-2.7,3-2.7,5v42.2c0,3.3,2.7,6,6,6c3.3,0,6-2.7,6-6v-39.2    c6.8-5.7,10.7-14.1,10.7-23v-53.3C195.4,116.201,171.2,92.001,141.4,92.001z" fill="#2c3e50"/>
	</g>
</g>
<g>
	<g>
		<path d="M350.5,264.301c0-3.4-2.7-6.1-6-6.1s-6,2.7-6,6c0,8.6-7,15.7-15.7,15.7c-3.3,0-6.4-1.1-9-2.8c-0.4-0.5-0.9-0.9-1.5-1.2    c-3.2-2.9-5.2-7-5.2-11.6c0-3.3-2.7-6-6-6s-6,2.7-6,6c0,7.6,3.1,14.5,8.1,19.5l-6.8,151c-0.1,1.8,0.6,3.5,2,4.7l21.1,19.1    c1.1,1,2.6,1.5,4,1.5c1.4,0,2.9-0.5,4-1.5l20.8-18.8c1.3-1.2,2.1-2.9,2-4.7l-6.6-152.7C347.9,277.501,350.5,271.201,350.5,264.301    z M323.5,446.001l-15-13.5l6.4-141.7c2.5,0.7,5.1,1.2,7.9,1.2c3.2,0,6.3-0.6,9.2-1.6l6.1,142.5L323.5,446.001z" fill="#2c3e50"/>
	</g>
</g>
<g>
</g>
<g>
</g>
<g>
</g>
<g>
</g>
<g>
</g>
<g>
</g>
<g>
</g>
<g>
</g>
<g>
</g>
<g>
</g>
<g>
</g>
<g>
</g>
<g>
</g>
<g>
</g>
<g>
</g>
</svg>
